<?xml version="1.0" encoding="utf-8"?>
<!-- Generator: Adobe Illustrator 25.1.0, SVG Export Plug-In . SVG Version: 6.00 Build 0)  -->
<svg version="1.1" id="Layer_1" xmlns="http://www.w3.org/2000/svg" xmlns:xlink="http://www.w3.org/1999/xlink" x="0px" y="0px"
	 viewBox="0 0 48 48" style="enable-background:new 0 0 48 48;" xml:space="preserve">
<style type="text/css">
	.st0{fill:#2F8CCC;}
	.st1{fill:#FFFFFF;}
</style>
<rect class="st0" width="48" height="48"/>
<g>
	<path class="st1" d="M14.48,17.27h3.73l1.34,7.12l1.97-7.12h3.72l1.97,7.11l1.35-7.11h3.71L29.47,30h-3.85l-2.23-8.01L21.16,30
		h-3.86L14.48,17.27z"/>
	<path class="st1" d="M32.69,17.27h4.33l2.25,3.91l2.19-3.91h4.29l-3.96,6.16L46.13,30h-4.42l-2.51-4.09L36.69,30H32.3l4.39-6.63
		L32.69,17.27z"/>
</g>
<g>
	<path class="st1" d="M11.25,27.9H6.78L6.16,30H2.15l4.78-12.72h4.29L16,30h-4.12L11.25,27.9z M10.43,25.15l-1.4-4.57l-1.39,4.57
		H10.43z"/>
</g>
</svg>
